<?xml version="1.0" encoding="utf-8"?>
<!-- Generator: Adobe Illustrator 16.0.0, SVG Export Plug-In . SVG Version: 6.00 Build 0)  -->
<!DOCTYPE svg PUBLIC "-//W3C//DTD SVG 1.1//EN" "http://www.w3.org/Graphics/SVG/1.1/DTD/svg11.dtd">
<svg version="1.1" id="Layer_1" xmlns="http://www.w3.org/2000/svg" xmlns:xlink="http://www.w3.org/1999/xlink" x="0px" y="0px"
	 width="145px" height="145px" viewBox="242.5 325.5 145 145" enable-background="new 242.5 325.5 145 145" xml:space="preserve">
<path fill="#F0C30F" d="M329,461c-16.002-5.843-26.021-18.092-33.927-32.318c-9.698-17.447-17.002-35.814-18.502-55.979
	c-0.805-10.818,0.375-21.364,7.387-30.31c3.599-4.592,4.553-4.392,6.685,0.758c3.567,8.612,7.144,17.223,10.624,25.87
	c0.563,1.397,2.227,2.958,0.549,4.499c-2.849,2.614-2.264,5.902-1.586,8.877c3.012,13.219,7.61,25.87,14.697,37.5
	c1.899,3.115,3.914,6.365,8.354,6.168c1.808-0.081,2.102,1.396,2.582,2.569c4.398,10.779,8.766,21.574,13.141,32.364
	C335.666,461,332.334,461,329,461z"/>
<path fill="#F0C310" d="M304,333c2.814,1.956,3.471,5.188,4.688,8.06c2.728,6.436,5.228,12.97,8.077,19.35
	c1.826,4.09,0.833,6.502-3.264,8.25c-8.042,3.431-7.985,3.535-11.294-4.527c-3.095-7.544-6.044-15.154-9.4-22.58
	c-1.528-3.38-1.061-5.002,2.581-6.017c1.617-0.451,3.614-0.734,4.613-2.535C301.333,333,302.667,333,304,333z"/>
<path fill="#F0C310" d="M337.807,420.461c2.633-0.093,4.036,1.033,4.791,2.828c3.73,8.871,7.416,17.762,11.045,26.675
	c1.115,2.738,0.172,4.723-2.452,6.184c-8.595,4.777-8.966,4.702-12.759-4.368c-3.139-7.502-6.029-15.113-9.398-22.511
	c-1.643-3.601-1.082-5.427,2.758-6.462C334.012,422.207,336.107,421.138,337.807,420.461z"/>
</svg>
