<?xml version="1.0" encoding="utf-8"?>
<!-- Generator: Adobe Illustrator 16.0.0, SVG Export Plug-In . SVG Version: 6.00 Build 0)  -->
<!DOCTYPE svg PUBLIC "-//W3C//DTD SVG 1.1//EN" "http://www.w3.org/Graphics/SVG/1.1/DTD/svg11.dtd">
<svg version="1.1" id="Layer_1" xmlns="http://www.w3.org/2000/svg" xmlns:xlink="http://www.w3.org/1999/xlink" x="0px" y="0px"
	 width="144px" height="146px" viewBox="234.5 323.5 144 146" enable-background="new 234.5 323.5 144 146" xml:space="preserve">
<g>
	<g>
		<g>
			<g>
				<g>
					<polygon fill="#F0C30F" points="309,462 309.001,462 309.001,462 					"/>
					<path fill="#F0C30F" d="M310.875,460.379c6.049-6.922,13.115-9.359,22.005-5.646c3.214,1.342,6.146-0.022,6.98-3.582
						c2.093-8.932,7.541-13.808,16.612-14.887c3.637-0.433,5.529-2.867,4.556-6.317c-2.821-9.987,1.558-16.765,9.218-22.295
						c0.268-0.194,0.503-0.435,0.754-0.65v0.001c0-0.001,0.001-0.001,0.001-0.002c0-1.667,0-3.333,0-5
						c0-0.001-0.001-0.002-0.001-0.003c0,0.001,0,0.002,0,0.003c-2.127-3.152-4.168-6.366-6.404-9.438
						c-1.879-2.581-0.21-4.809,0.518-7.057c4.061-12.578,5.521-11.028-6.702-17.305c-5.56-2.853-5.284-7.493-6.121-12.021
						c-1.511-8.17-1.429-8.613-9.267-8.255c-6.863,0.313-11.831-1.693-15.062-7.9c-0.979-1.884-2.602-3.435-3.929-5.138
						c-0.001,0-0.001,0-0.002-0.001c-3.215-0.876-6.035,0.502-8.44,2.153c-5.788,3.974-11.27,3.751-16.889-0.157
						c-1.076-0.748-2.361-1.211-3.582-1.732c-2.225-0.951-4.208-0.346-6.039,1.053c-2.115,2.959-4.335,5.848-6.313,8.896
						c-1.913,2.946-4.906,2.431-7.597,2.554c-11.76,0.537-11.912-1.754-13.202,11.768c-0.579,6.062-4.589,7.831-8.653,10.208
						c-7.672,4.486-8.461,4.861-4.694,12.695c4.398,9.146-1.439,14.443-5.621,20.679c0-0.001,0-0.002,0-0.004
						c0,0.001,0,0.002-0.001,0.003c0,1.333,0,2.667,0,4c3.809,2.431,6.56,6.024,9.874,9c2.415,2.168,1.153,5.036,1.021,7.568
						c-0.592,11.394-0.767,11.902,10.063,14.233c5.976,1.286,7.373,5.325,9.205,9.757c3.373,8.156,3.69,8.997,12.004,6.23
						c9.668-3.217,14.271,3.011,19.833,8.209h-0.001c0.001,0,0.001,0.001,0.002,0.001c1.333,0,2.665,0,3.999,0
						C309.629,461.463,310.336,460.995,310.875,460.379z M328.246,399.696c0.525-7.824,6.109-12.604,13.658-11.689
						c5.571,0.675,9.643,6.373,8.782,11.924c-0.343,2.214-1.692,2.094-3.188,2.104c-2.987,0.021-5.975-0.017-8.961,0.039
						c-0.92,0.017-2.146-0.322-2.508,0.953c-0.367,1.291,0.436,2.254,1.406,2.935c2.553,1.786,5.381,1.197,8.174,0.816
						c1.001-0.139,2.338-1.409,2.831,0.476c0.372,1.425,0.466,3.008-1.284,3.861c-2.166,1.056-4.506,1.002-6.82,1.125
						C332.51,412.195,327.738,407.248,328.246,399.696z M319.556,376.967c2.625,0.004,3.971,0.539,3.926,3.55
						c-0.14,9.329-0.111,18.662-0.015,27.991c0.029,2.748-1.251,3.33-3.677,3.324s-3.729-0.584-3.642-3.342
						c0.148-4.66,0.042-9.329,0.038-13.995c-0.001-4.665,0.103-9.333-0.04-13.994C316.068,377.949,316.907,376.962,319.556,376.967z
						 M286.074,404.466c-0.785,4.646-4.101,6.693-8.305,7.394c-2.429,0.402-4.979,0.376-7.448,0.188
						c-6.395-0.479-6.803-1.106-5.827-7.984c3.086,1.271,6.112,2.84,9.514,2.45c1.782-0.203,3.803-0.488,4.313-2.722
						c0.514-2.246-1.127-3.341-2.747-4.227c-2.182-1.192-4.523-2.102-6.68-3.333c-3.668-2.097-5.513-5.306-4.828-9.565
						c0.69-4.292,3.617-6.671,7.66-7.514c2.412-0.503,4.947-0.505,7.43-0.55c4.591-0.081,6.966,1.761,5.225,7.106
						c-3.03-0.699-5.828-2.059-8.893-1.338c-1.645,0.388-3.292,0.875-3.566,2.931c-0.241,1.804,0.968,2.769,2.31,3.486
						c2.194,1.175,4.502,2.137,6.689,3.324C285.026,396.342,286.862,399.798,286.074,404.466z M304.928,411.427
						c-2.226-2.474-3.068-0.704-4.563-0.022c-4.417,2.009-9.054,0.447-10.463-3.506c-1.616-4.534,0.563-8.601,5.473-9.954
						c1.75-0.483,3.594-0.625,5.395-0.92c1.117-0.185,2.673-0.07,2.68-1.578c0.007-1.426-1.125-2.472-2.642-2.48
						c-1.811-0.012-3.621,0.311-5.435,0.354c-1.187,0.027-2.732,2.483-3.519-0.255c-0.545-1.897,0.002-3.33,2.276-4.206
						c9.669-3.724,16.215,0.521,16.323,10.795c0.01,0.997,0.001,1.994,0.001,2.991c0,1.828,0.063,3.66-0.014,5.486
						C310.302,411.399,306.934,413.655,304.928,411.427z"/>
				</g>
			</g>
		</g>
		<path fill="#F2CC29" d="M340.18,398.011c-1.611-0.625-4.055,0.858-4.188-1.66c-0.115-2.188,1.613-3.465,3.893-3.564
			c2.379-0.104,3.918,1.175,3.879,3.442C343.715,399.035,341.133,397.07,340.18,398.011z"/>
		<path fill="#F0C81F" d="M300.952,400.921c1.394,0.065,3.089-0.334,2.807,1.815c-0.337,2.562-1.669,4.334-4.506,4.375
			c-1.671,0.022-3.124-0.687-3.12-2.485C296.139,401.406,298.784,401.319,300.952,400.921z"/>
	</g>
</g>
</svg>
