<?xml version="1.0" encoding="utf-8"?>
<!-- Generator: Adobe Illustrator 16.0.0, SVG Export Plug-In . SVG Version: 6.00 Build 0)  -->
<!DOCTYPE svg PUBLIC "-//W3C//DTD SVG 1.1//EN" "http://www.w3.org/Graphics/SVG/1.1/DTD/svg11.dtd">
<svg version="1.1" id="Layer_1" xmlns="http://www.w3.org/2000/svg" xmlns:xlink="http://www.w3.org/1999/xlink" x="0px" y="0px"
	 width="145px" height="145px" viewBox="232.5 325.5 145 145" enable-background="new 232.5 325.5 145 145" xml:space="preserve">
<g>
	<g>
		<path fill="#F0C30F" d="M243,389c9.937-10.3,21.132-19.224,31.651-28.888c8.34-7.663,16.891-15.097,25.375-22.602
			c5.524-4.887,8.912-5.003,14.4-0.117C333.324,354.217,352.148,371.125,371,388c0,2.667,0,5.333,0,8
			c-6.286,5.649-9.348,5.634-15.803-0.128c-14.875-13.279-29.83-26.473-44.535-39.937c-2.814-2.576-4.295-2.216-6.854,0.11
			c-14.63,13.302-29.42,26.429-44.144,39.629c-6.931,6.213-10.696,6.074-16.665-0.675C243,393,243,391,243,389z"/>
		<path fill="#E5CF59" d="M293.956,459.989c0.015,0.337,0.029,0.674,0.044,1.011c-9,0-18,0-27,0
			c-0.065-0.279-0.126-0.559-0.183-0.839c0.612-0.856,1.507-1.354,2.489-1.421c7.516-0.528,15.037-0.667,22.549,0.066
			C292.686,458.891,293.377,459.379,293.956,459.989z"/>
		<path fill="#E5D05A" d="M321,461c-0.05-0.289-0.107-0.576-0.172-0.862c0.881-1.15,2.17-1.515,3.492-1.575
			c6.748-0.315,13.502-0.302,20.25-0.011c1.323,0.059,2.609,0.416,3.521,1.528c-0.134,0.296-0.165,0.603-0.094,0.92
			C339,461,330,461,321,461z"/>
		<path fill="#F0C30F" d="M348.094,460.08c-9.088,0.019-18.177,0.038-27.266,0.057c-2.327-1.149-1.813-3.326-1.825-5.257
			c-0.042-5.988-0.118-11.979,0.028-17.966c0.064-2.669-0.545-3.944-3.559-3.829c-5.48,0.211-10.979,0.169-16.467,0.015
			c-2.702-0.074-3.418,1.061-3.371,3.548c0.113,5.985,0.063,11.978,0.018,17.967c-0.015,1.938,0.414,4.075-1.697,5.377
			c-9.047,0.057-18.093,0.114-27.14,0.171c-3.044-0.584-3.916-2.686-3.914-5.479c0.016-15.648,0.047-31.3-0.04-46.947
			c-0.012-2.115,0.972-3.391,2.376-4.641c13.174-11.735,26.385-23.431,39.456-35.279c2.136-1.937,3.388-1.601,5.314,0.135
			c13.104,11.813,26.275,23.553,39.484,35.249c1.805,1.597,2.311,3.374,2.299,5.689c-0.079,14.817-0.039,29.637-0.042,44.452
			C351.75,456.245,351.717,459.139,348.094,460.08z"/>
	</g>
</g>
</svg>
