<?xml version="1.0" encoding="utf-8"?>
<!-- Generator: Adobe Illustrator 16.0.0, SVG Export Plug-In . SVG Version: 6.00 Build 0)  -->
<!DOCTYPE svg PUBLIC "-//W3C//DTD SVG 1.1//EN" "http://www.w3.org/Graphics/SVG/1.1/DTD/svg11.dtd">
<svg version="1.1" id="Layer_1" xmlns="http://www.w3.org/2000/svg" xmlns:xlink="http://www.w3.org/1999/xlink" x="0px" y="0px"
	 width="463.795px" height="308.314px" viewBox="74.928 240.604 463.795 308.314"
	 enable-background="new 74.928 240.604 463.795 308.314" xml:space="preserve">
<g>
	<path fill="#27AD60" d="M455.51,327.116c-3.84,2.65-3.177,6.524-2.213,10.045c0.73,2.671,0.282,4.441-1.456,6.44
		c-2.548,2.929-4.791,6.124-7.743,9.117c1.531-7.74-2.245-13.824-5.171-20.163c-1.354-2.933-1.899-5.941-0.734-9.222
		c1.521-4.29,0.32-6.313-4.301-7.43c-7.558-1.827-15.096-2.405-22.649,0.337c-9.188,3.333-6.772,0.894-5.833-5.382
		c0.399-2.694,1.499-5.285,2.497-8.659c-4.157,3.759-7.34,7.663-7.994,12.136c-1.188,8.096-7.46,10.166-12.957,13.55
		c-1.445-1.47-0.293-3.097-1.121-4.607c-2.629,2.374-2.492,6.313-5.183,8.575c-2.534,2.13-5.019,4.292-8.176,6.322
		c-1.573-14.226-2.313-27.835,9.948-37.941c12.526-10.321,26.729-14.17,42.833-10.839c6.421,1.328,11.953,4.24,17.301,7.768
		c1.649,1.087,3.368,2.066,6.014,3.678c-2.72-6.39-6.541-10.902-9.211-16.051c-1.031-1.989-2.834-3.776-3.216-5.852
		c-0.464-2.536,3.438-2.53,3.994-4.931c-0.16-0.716-0.887-0.556-1.257-0.439c-5.34,1.688-8.968-0.682-12.327-4.612
		c-1.938-2.272-3.328-3.892,0.009-5.914c0.537-0.327,0.885-0.974,1.65-1.861c-2.172,0.428-4.281,1.235-4.371-2.625
		c-1.921,4.348-4.229,6.54-8.248,6.129c-1.353-0.138-1.704,1.091-2.358,1.86c-2.294,2.686-3.8,6.015-6.642,8.452
		c-1.354-7.123,1.939-15.403,7.532-19.237c5.909-4.05,11.772-8.172,17.759-12.104c3.235-2.124,6.979-0.731,10.685-1.223
		c-0.047,2.207-2.129,2.786-2.729,4.004c-0.021,0.893,0.544,0.914,0.801,0.816c5.152-1.964,7.726,1.054,10.135,4.927
		c2.411,3.883,1.822,5.506-2.64,6.03c-0.883,0.104-1.851-0.241-2.775,0.629c1.597,2.426,4.27,2.623,6.638,2.755
		c2.684,0.15,3.676,1.482,4.351,3.759c2.14,7.216,4.389,14.398,6.853,22.438c0.881-3.381,1.475-5.895,2.188-8.374
		c3.065-10.613,9.584-19.146,16.951-27.003c2.877-3.068,7.59-2.849,11.496-3.853c8.271-2.128,16.505-1.977,24.429,1.881
		c1.645,0.8,2.903,1.724,3.775,3.316c3.001,5.484,6.27,10.834,8.662,16.626c2.389,5.783,1.994,11.694,0.221,17.538
		c-0.583,1.923-1.799,4.157-4.036,3.681c-2.306-0.491-4.101-2.264-4.167-5.128c-0.116-5.046-0.344-10.091-0.563-15.135
		c-0.05-1.084,0.347-2.302-0.899-3.661c-1.149,1.984-0.702,3.845-0.712,5.563c-0.01,1.927-0.383,3.667-1.472,5.268
		c-0.793,1.167-1.682,1.818-2.871,0.575c-2.324-2.422-5.444-3.155-8.444-4.229c-2.386-0.853-4.766-1.919-5.434-5.227
		c-0.184,7.236-5.813,5.714-9.663,6.236c-5.09,0.69-3.486-5.319-6.316-7.206c-0.938,0.84-0.649,2.057-0.355,2.862
		c1.793,4.927-1.143,7.669-4.28,10.708c-5.939,5.745-11.147,12.065-12.863,21.267c5.46-1.631,10.445-3.251,15.505-4.603
		c7.03-1.879,13.977-4.65,21.488-3.165c10.796,2.134,18.883,8.491,24.727,17.393c3.995,6.088,8.778,12.203,8.09,20.259
		c-0.477,5.499-2.909,10.442-4.945,15.447c-1.747,4.294-4.045,8.366-6.142,12.515c-0.456,0.904-0.86,2.196-2.136,1.974
		c-1.021-0.179-1.123-1.426-1.314-2.3c-1.22-5.463-2.527-10.958,2.541-15.848c-2.571-0.18-2.764,3.251-4.771,1.957
		c-1.373-0.884-1.332-2.806-1.765-4.33c-0.254-0.896-0.396-1.886-0.878-2.646c-2.813-4.414-2.592-8.302,2.126-11.874
		c-5.871,3.223-9.896,0.655-13.837-3.08c-1.795-1.701-4.186-2.76-7.116-3.124c2.781-4.415,7.783-6.307,10.563-10.951
		c-4.877,0.992-8.47,3.797-12.076,6.236c-4.261,2.876-8.875,0.795-13.52,1.967c1.596,2.021,3.922,2.656,5.916,3.587
		c11.063,5.166,17.492,14.628,23.563,24.594c3.816,6.276,1.348,12.887,1.945,19.328c1.301,13.929-9.548,20.285-17.114,28.726
		c-0.604,0.669-1.531,1.055-2.345,1.513c-0.317,0.181-0.73,0.197-1.795,0.46c2.676-7.088,0.682-15.355,8.231-20.091
		c-0.562-0.411-0.774-0.692-0.925-0.661c-1.854,0.388-4.099,1.93-5.41-0.229c-1.518-2.485,1.188-3.644,2.553-5.134
		c2.409-2.631,4.805-5.275,7.118-7.818c-1.74,0.869-3.68,1.992-5.738,2.821c-1.961,0.79-4.158,1.619-5.709-0.738
		c-1.724-2.624,0.376-3.8,2.105-5.085c0.3-0.222,0.48-0.598,0.909-1.143c-2.354-0.574-5.282,2.345-6.798-1.534
		c-0.896-2.305-2.61-4.282-3.838-6.475c-0.563-1.017-0.188-2.001,0.598-2.913c1.207-1.407,2.313-2.906,3.396-4.413
		c0.28-0.389,0.563-1.052,0.412-1.418c-0.294-0.732-1.094-0.604-1.712-0.418c-1.273,0.383-2.55,0.783-3.771,1.301
		c-2.337,0.991-3.708,0.414-5.235-1.807c-1.735-2.518,0.104-3.342,1.313-4.514c2.093-2.025,4.328-3.902,6.229-6.213
		c-3.084-0.572-5.457,0.871-7.967,1.668c-5.521,1.755-6.572,1.411-10.272-3.043c-1.952-2.349-3.538-5.542-7.563-4.539
		C461.229,327.46,458.154,326.421,455.51,327.116z"/>
	<path fill="#27AD60" d="M149.519,323.375c-3.528-0.412-5.141,2.313-6.999,4.444c-4.43,5.083-4.441,5.141-10.834,2.998
		c-2.233-0.748-4.482-1.445-7.501-2.416c2.133,3.513,4.816,5.402,6.974,7.744c1.006,1.09,2.246,1.968,0.903,3.653
		c-1.161,1.458-2.058,3.217-4.447,2.423c-2.338-0.777-4.699-1.484-7.431-2.342c0.542,2.498,1.929,4.024,3.178,5.062
		c3.269,2.713,2.261,5.168,0.329,7.865c-0.232,0.324-0.546,0.602-0.726,0.951c-1.618,3.142-2.922,6.845-7.606,3.393
		c-0.178,1.475,0.417,1.813,0.944,2.122c1.957,1.148,2.485,2.966,1.531,4.779c-1.072,2.038-3.077,1.536-4.953,1.008
		c-2.382-0.671-4.323-2.26-6.569-3.407c2.667,2.954,5.138,5.826,7.768,8.544c1.291,1.335,3.336,2.447,2.248,4.556
		c-1.135,2.202-3.179,1.032-4.917,0.519c-0.349-0.103-0.754-0.015-2.314-0.015c8.2,5.19,6.094,13.532,8.908,20.281
		c-2.02,0.302-3.045-0.761-3.931-1.561c-6.406-5.783-12.648-11.725-16.432-19.709c-0.758-1.599-1.142-3.227-1.085-5.006
		c0.076-2.398,0.169-4.811-0.007-7.198c-1.372-18.596,9.316-29.976,23.46-39.263c2.603-1.709,5.404-3.115,8.231-5.294
		c-10.396,2.84-17.176-5.279-25.968-7.586c3.603,3.312,7.205,6.622,11.239,10.33c-3.954,0.646-6.588,2.522-9.069,4.701
		c-3.469,3.048-7.202,4.498-11.193,1.614c-0.743,0.029-0.832,0.206-0.588,0.538c1.401,1.915,4.356,4.361,3.917,5.643
		c-1.367,3.979-2.396,8.221-4.422,11.872c-1.65,2.975-2.669-0.866-4.894-1.334c4.94,6.215,3.309,12.351,1.052,19.221
		c-4.517-4.855-5.915-10.524-8.465-15.538c-1.554-3.054-2.673-6.352-3.757-9.617c-1.873-5.643-1.51-11.019,1.25-16.515
		c4.826-9.611,11.271-17.467,20.511-23.232c8.983-5.604,18.03-4.193,27.287-1.576c5.498,1.554,10.946,3.28,16.438,4.854
		c0.819,0.234,1.747,1.166,2.556,0.359c0.783-0.781-0.048-1.686-0.238-2.563c-1.352-6.253-5.297-10.992-9.408-15.467
		c-4.339-4.724-10.293-8.5-6.464-16.676c-2.179,1.561-2.696,3.568-3.391,5.399c-0.81,2.133-2.155,2.839-4.298,2.346
		c-1.037-0.238-2.09-0.563-3.138-0.574c-3.58-0.038-5.876-1.369-5.594-6.561c-1.33,4.088-3.641,5.449-6.384,6.341
		c-2.639,0.858-5.349,1.504-7.431,3.633c-1.351,1.381-2.804,0.787-3.566-0.774c-1.034-2.117-1.988-4.35-1.357-6.805
		c0.316-1.229,0.447-2.328-1.193-3.826c-0.267,6.197-0.538,11.874-0.74,17.554c-0.066,1.868,0.029,3.62-1.592,5.109
		c-2.74,2.518-4.73,2.476-6.147-0.977c-2.609-6.362-2.944-13.015-0.086-19.344c2.512-5.561,5.758-10.785,8.554-16.223
		c1.093-2.126,3.053-2.814,4.974-3.656c9.597-4.205,19.111-2.25,28.775,0.015c7.704,1.806,10.667,8.172,14.688,13.633
		c5.172,7.026,8.749,14.764,10.089,24.667c2.598-8.307,4.961-15.405,6.99-22.596c0.718-2.546,1.713-3.748,4.498-3.996
		c2.226-0.199,4.82-0.293,6.301-2.113c0.334-1.006-0.245-1.032-0.545-1.068c-2.179-0.258-4.879,0.303-5.903-2.247
		c-0.938-2.334,1.527-3.722,2.386-5.579c2.161-4.67,5.972-4.256,10.014-3.024c-0.182-2.406-3.589-2.714-2.691-4.392
		c0.901-1.684,3.386-0.366,5.162-0.611c2.453-0.338,4.545,0.578,6.616,2.101c4.594,3.378,9.258,6.731,14.205,9.546
		c8.123,4.622,9.997,12.071,10.473,21.079c-3.573-2.457-5.154-5.839-7.304-8.707c-0.972-1.296-1.645-2.646-3.733-1.947
		c-0.745,0.251-2.042-0.033-2.616-0.573c-2.354-2.21-4.29-5.299-8.115-2.296c-0.078-0.271-0.027-0.087,0.027,0.094
		c0.572,1.874,4.217,1.994,2.834,4.992c-1.371,2.973-7.331,7.343-9.709,7.152c-2.033-0.164-4.072-0.241-6.637-0.386
		c5.559,5.314,5.518,5.288,1.546,11.637c-2.988,4.777-5.854,9.63-9.185,15.126c4.518-1.388,7.299-4.134,10.621-5.886
		c15.552-8.204,31.23-8.663,46.772-0.207c5.222,2.842,10.032,6.327,13.84,11.22c5.304,6.815,6.136,14.519,5.856,22.625
		c-0.109,3.176-0.353,6.348-0.559,9.944c-3.636-1.83-6.319-4.302-8.937-6.844c-2.638-2.562-2.735-6.59-5.263-9.391
		c-0.951,2.031,1.354,3.907-0.156,5.941c-4.455-1.343-7.889-4.51-11.518-7.304c-0.563-0.434-0.469-1.712-0.695-2.596
		c-1.471-5.752-3.983-10.917-8.792-15.4c1.013,4.333,1.821,8.198,2.837,12.009c0.782,2.933-0.24,3.654-2.961,2.91
		c-3.313-0.907-6.616-1.876-9.972-2.584c-6.151-1.299-12.138,0.035-18.014,1.683c-2.891,0.81-4.104,3.219-2.847,5.965
		c1.875,4.097,0.945,7.836-0.977,11.385c-3.137,5.792-5.281,11.776-5.394,18.771c-2.871-3.731-5.769-7.44-8.595-11.205
		c-0.819-1.092-0.125-2.279,0.067-3.45c0.552-3.35,1.718-6.798-1.001-9.828C156.038,325.022,152.682,324.5,149.519,323.375z"/>
	<path fill="#27AD60" d="M392.009,523.293c3.364-0.972,6.064-3.191,9.041-4.878c9.396-5.322,19.284-6.83,29.79-4.276
		c1.15,0.279,2.336,0.416,3.505,0.618c7.821,1.749,14.548,5.354,19.688,11.636c4.814,4.875,9.848,9.562,13.827,15.194
		c0.607,0.866,1.181,1.771,1.854,2.581c1.415,1.712,0.9,2.615-1.152,2.87c-5.772,0.717-11.47,1.839-17.365,1.833
		c-94.209-0.087-188.418-0.119-282.626,0.047c-7.603,0.015-14.632-1.709-21.752-3.777c-2.777-0.808-2.579-1.636-0.965-3.654
		c3.986-4.998,8.818-9.123,13.35-13.563c1.292-2.895,4.203-3.935,6.612-5.354c4.839-2.853,9.617-6.045,15.52-6.382
		c7.793-0.716,15.603-1.87,23.283,0.782c1.63,0.563,3.489,0.806,4.847,1.759c6.181,4.329,13.13,4.886,20.311,4.564
		c6.227,7.242,13.597,8.91,22.219,4.588c0.34-0.171,0.775,0.021,1.138,0.191c6.333,1.613,12.839,1.9,19.306,2.296
		c15.497,0.942,30.673-1.878,45.915-4.083c11.515-1.665,23.14-0.609,34.716-0.641c4.646-0.015,9.304,0.255,13.952,0.394
		c1.014-0.334,1.788,0.17,2.586,0.683c9.079,5.858,14.646,5.032,21.685-3.192C391.443,523.338,391.727,523.294,392.009,523.293z"/>
	<path fill="#E57E22" d="M181.33,516.188c-7.929,2.873-15.298,6.805-22.133,11.735c-7.931-5.849-15.43-12.125-21.718-19.823
		c-10.294-12.604-15.726-27.071-17.852-43.069c-1.242-9.348-2.732-18.638-2.277-28.104c0.936-19.477,3.415-38.688,9.077-57.44
		c5.879-19.47,12.888-38.439,23.091-56.112c3.501,0.07,7.182-0.425,9.59,3.064c-6.646,9.006-8.672,19.799-11.676,30.213
		c-4.646,16.106-8.469,32.375-10.744,49.02c-2.612,19.108-3.395,38.245,1.563,56.961c3.943,14.879,12.783,27.35,22.961,38.817
		C166.878,507.835,173.883,512.287,181.33,516.188z"/>
	<path fill="#E57E22" d="M454.031,526.393c-5.999-4.83-12.611-8.63-19.688-11.635c17.063-7.597,26.457-22.358,35.13-37.73
		c8.834-15.656,9.952-32.906,9.358-50.271c-0.807-23.604-5.567-46.595-12.198-69.212c-3.044-10.381-5.06-21.146-11.122-30.428
		c2.129-2.759,5.355-1.121,7.957-1.982c14.136,25.101,23.233,51.974,28.149,80.298c2.477,14.274,4.181,28.688,2.978,43.152
		c-1.841,22.136-5.789,43.679-21.427,61.073C467.45,516.017,461.022,521.515,454.031,526.393z"/>
	<path fill="#2980B8" d="M336.982,370.67c2.81-10.145,0.757-19.423-4.387-29.431c-0.206,4.229,0.849,7.155,1.339,10.143
		c1.612,9.732-3.061,22.275-13.607,26.163c-7.083,2.609-17.316-2.051-21.807-9.991c-1.442-2.549-2.611-5.234-2.86-8.198
		c-0.098-1.167-0.313-2.309,1.779-2.106c20.598,1.988,27.533-13.742,22.572-29.859c-1.14-3.704-2.856-7.145-4.966-10.402
		c-1.81-2.798,1.154-3.608,2.262-5.145c0.979-1.358,2.119-1.846,3.607-0.379c12.682,12.493,23.228,26.063,22.462,45.19
		C343.159,362.077,341.25,366.928,336.982,370.67z"/>
	<path fill="#E57E23" d="M311.134,294.41c-12.126,0-24.254-0.09-36.379,0.063c-3.027,0.038-4.268-0.622-4.193-3.939
		c0.162-7.2,0.831-8.012,8.016-7.985c7.195,0.027,14.393-0.142,21.583,0.012c2.694,0.057,3.497-0.958,3.436-3.462
		c-0.117-4.794,0.051-9.597-0.121-14.389c-0.087-2.415,0.659-3.357,3.146-3.283c9.13,0.273,7.838-0.828,7.927,7.494
		c0.038,3.598-0.023,7.198,0.043,10.794c0.021,1.066-0.469,2.74,1.463,2.613c1.513-0.099,1.197-1.539,1.205-2.527
		c0.041-5.064-0.003-10.128,0.044-15.191c0.015-1.226-0.473-3.017,1.649-2.909c1.701,0.086,1.438,1.63,1.446,2.787
		c0.023,4.797,0.21,9.604-0.046,14.389c-0.166,3.117,1.021,3.859,3.898,3.79c6.792-0.163,13.592-0.026,20.388-0.044
		c6.061-0.016,9.386,5.162,6.76,10.554c-0.874,1.794-2.538,1.16-3.892,1.165c-12.126,0.051-24.253,0.03-36.379,0.03L311.134,294.41z
		"/>
	<path fill="#2A80B9" d="M310.731,343.179c-3.639,6.556-9.074,9.998-16.667,9.064c-4.461-0.549-8.353-5.325-9.235-10.266
		c-1.778-9.962,1.974-18.309,7.613-26.036c2.108-2.887,4.705-5.418,7.09-8.101c0.891-1.001,1.847-1.527,3.049-0.386
		c8.9,8.456,16.012,17.892,15.942,30.899c-0.027,5.145-2.229,9.524-6.364,12.769c-0.498,0.391-1.199,1.014-1.709,0.345
		c-0.238-0.313,0.248-0.178,0.405-0.792c3.555-4.85,2.721-11.039,1.002-16.127C312.334,337.958,311.292,342.25,310.731,343.179z"/>
	<path fill="#F0C412" d="M354.813,462.413c-12.354,0.848-24.642-0.951-36.992-0.889c-14.875,0.074-29.729,0.56-44.583,0.997
		c-2.032,0.061-4.921,1.12-5.927-0.729c-1.079-1.986,1.281-3.977,2.395-5.854c1.04-0.532,1.336-1.576,1.772-2.538
		c1.398-3.093,3.746-4.537,7.2-4.604c22.302-0.418,44.604-0.424,66.896,0.075c2.238,0.252,3.456,1.989,4.896,3.396
		C352.46,455.413,356.302,457.774,354.813,462.413z"/>
	<path fill="#F0C411" d="M253.126,528.076c-5.331,3.522-10.951,4.033-16.943,1.842c-3.274-1.197-5.068-3.646-6.412-6.621
		c-0.814-3.681-0.285-7.404-0.32-11.104c-0.024-2.479,1.359-3.541,3.845-3.356c6.859,0.513,13.723,0.979,20.585,1.432
		c1.117,0.074,2.311,0.142,2.245,1.593C255.875,517.395,257.82,523.357,253.126,528.076z"/>
	<path fill="#F0C411" d="M392.009,523.293c-0.966,4.752-4.791,6.852-8.729,7.556c-5.317,0.953-10.896,0.862-14.987-3.896
		c-0.333-0.387-0.851-0.614-1.28-0.913c-1.745-4.492-0.813-9.179-0.979-13.785c-0.072-1.963,1.334-1.893,2.715-1.992
		c6.732-0.479,13.467-0.937,20.186-1.563c2.48-0.232,3.471,0.696,3.396,3.064C392.21,515.606,392.113,519.45,392.009,523.293z"/>
	<path fill="#F0C411" d="M396.845,433.896c2.794-0.232,4.994,0.053,4.986,3.813c-0.01,4.974-1.131,7.145-4.848,7.042
		c-3.241-0.09-6.262,1.172-9.462,1.023c-3.013-0.144-5.57-3.187-5.539-6.954c0.024-3.313,2.672-3.88,5.051-3.693
		C390.449,435.393,393.47,433.395,396.845,433.896z"/>
	<path fill="#F1C515" d="M226.052,433.79c3.082,0.64,6.686,1.358,10.422,1.402c1.774,0.021,4.09,1.024,3.683,3.331
		c-0.48,2.724-0.573,6.38-4.069,7.072c-4.313,0.859-8.792-0.274-12.924-1.262c-3.539-0.841-2.927-4.964-2.641-7.959
		C220.818,433.296,223.447,433.96,226.052,433.79z"/>
	<g>
		<g>
			<g>
				<path fill="#F1C515" d="M238.696,449.3c-0.221-0.006-0.444,0.254-0.657,0.413c0.219-0.164,0.442-0.295,0.667-0.413
					C238.703,449.3,238.699,449.3,238.696,449.3z"/>
				<path fill="#F1C515" d="M343.924,448.855c-23.022-0.837-46.052-0.473-69.078,0.058c0.001-0.001,0.002-0.003,0.003-0.004
					c-0.394,0.059-0.773,0.023-1.147-0.044c-11.902-0.39-23.755,1.537-35.663,0.848c-3.215,1.68-7.273,1.373-10.671,4.32
					c1.291,0.169,1.922,0.307,2.555,0.326c11.04,0.298,21.972,1.105,32.066,6.274c1.318,0.675,2.302,0.413,3.276-1.079
					c1.419-2.177,2.531-4.766,5.427-6.297c-0.444,1.199-0.718,1.94-0.991,2.682c1.051-0.133,1.512-0.897,2.036-1.707
					c2.17-3.354,5.015-4.771,9.28-4.724c21.925,0.245,43.854,0.128,65.782,0.143c-0.003-0.111-0.006-0.223-0.009-0.331
					C345.94,448.623,344.894,448.89,343.924,448.855z"/>
			</g>
		</g>
	</g>
	<g>
		<g>
			<path fill="#F1C516" d="M354.917,456.076c1.623,1.562,1.943,4.401,4.734,4.832c0.002-0.001,0.003-0.001,0.005-0.001
				c10.829-5.966,22.872-6.102,34.813-7.073c-3.318-2.492-7.313-2.701-10.871-4.112c-0.771-0.758-1.752-0.457-2.649-0.481
				c-6.229-0.193-12.444-0.071-18.693-0.611c-5.016-0.435-10.313-1.297-15.304,0.824l-0.15,0.199
				c0.83,1.317,1.854,2.439,3.264,3.167C352.915,452.05,353.5,454.709,354.917,456.076z"/>
		</g>
	</g>
	<path fill="#F1C61D" d="M350.018,484.068c-26.132,0-52.263,0-78.394-0.001c0.182-1.767-1.89-1.387-2.382-2.509
		c1.714-1.438,3.787-1.051,5.747-1.054c23.957-0.024,47.914,0.001,71.872-0.044c2.066-0.004,4.305,0.524,6.104-1.104
		c1.959,1.563,0.694,2.423-0.785,2.937C351.171,482.645,350.065,482.635,350.018,484.068z"/>
	<g>
		<g>
			<path fill="#F0C411" d="M380.458,444.813c-3.176-11.235-6.61-22.409-9.411-33.739c-1.269-5.144-4.048-8.479-8.479-10.787
				c-12.561-6.547-26.271-8.86-40.104-9.704c-9.482-0.578-19.07-0.683-28.646,0.58c-10.4,1.372-20.619,3.201-30.328,7.199
				c-6.329,2.603-11.183,6.333-12.905,13.859c-2.613,11.429-5.428,22.85-9.313,33.948c0.926,1.188,2.23,0.606,3.336,0.604
				c5.628-0.021,11.267-0.395,16.863-0.542c15.599-0.427,31.219-0.557,46.832-0.635c14.692-0.069,29.377,0.472,44.069,0.433
				c3.583-0.014,7.201-0.424,10.748,0.242c5.161,0.97,10.349,0.341,15.521,0.521C379.951,446.837,381.154,446.667,380.458,444.813z
				 M368.963,442.486c-26.188-1.404-52.413-2.31-78.624-1.459c-12.87,0.416-25.81-0.029-38.625,1.703
				c-2.362,0.316-3.254-0.188-2.564-2.704c1.784-6.515,3.432-13.062,5.188-19.576c0.793-2.944,2.082-5.81,2.484-8.793
				c0.508-3.777,2.719-5.357,5.941-6.63c7.629-3.017,15.721-3.732,23.689-4.703c12.03-1.464,24.188-1.438,36.29-0.98
				c11.772,0.44,23.476,1.878,34.922,4.885c4.497,1.186,7.193,3.953,8.308,8.617c1.993,8.342,4.269,16.62,6.543,24.895
				C373.858,442.617,373.794,442.822,368.963,442.486z"/>
		</g>
	</g>
	<path fill="#F1C517" d="M248.67,470.626c3.753-0.039,8.266,3.854,8.389,7.237c0.125,3.427-4.533,7.636-8.439,7.626
		c-3.944-0.011-7.498-3.409-7.519-7.192C241.079,474.269,244.632,470.669,248.67,470.626z"/>
	<path fill="#F0C413" d="M238.78,479.911c-3.16,5.889-7.892,7.346-12.517,3.755c-2.279-1.769-3.333-4.258-2.603-7.055
		c0.915-3.499,3.83-5.312,7.065-5.608c2.943-0.271,6.13,0.371,7.391,3.925C238.776,476.53,238.987,478.192,238.78,479.911z"/>
	<path fill="#F1C517" d="M238.78,479.911c-0.996-1.562-0.795-3.274-0.664-4.982C239.646,476.414,240.036,478.053,238.78,479.911z"/>
	<path fill="#F0C413" d="M382.746,476.747c1.948-4.891,6.271-7.063,10.571-5.313c4.611,1.884,6.499,5.636,4.697,9.359
		c-2.04,4.225-7.109,6.055-11.099,3.762c-1.763-1.015-3.77-2.073-4.162-4.482C382.139,478.964,381.914,477.857,382.746,476.747z"/>
	<path fill="#F0C411" d="M380.339,481.541c-5.154,4.952-8.285,5.325-12.618,1.191c-1.981-1.896-3.267-4.298-1.962-7.179
		c1.354-2.986,5.616-5.228,8.546-4.527c1.949,0.463,3.866,1.051,5.21,2.709C381.616,476.144,381.486,478.789,380.339,481.541z"/>
	<g>
		<g>
			<path fill="#F0C310" d="M402.733,460.047c-0.587-2.323-1.996-3.251-4.365-3.103c-4.776,0.301-9.567,0.386-14.335,0.761
				c-6.701,0.526-13.215,1.644-19.493,4.452c-3.353,1.5-6.406,3.734-10.67,3.688c-8.66-0.1-17.268-0.986-25.91-1.132
				c-20.24-0.331-40.468,0.229-60.694,0.914c-1.458,0.051-2.929,0.111-4.252-0.754c-12.154-7.947-26.064-7.04-39.631-7.78
				c-2.177-0.119-3.362,0.919-4.058,3.395c-2.964,10.529-3.603,21.108-1.891,31.896c1.462,9.211,5.16,12.574,14.456,12.991
				c1.562,0.07,3.094,0.781,4.657,0.867c12.603,0.682,25.21,1.785,37.817,1.813c30.631,0.079,61.277,1.037,91.212-0.856
				c9.602,0.258,18.389-1.449,27.26-1.812c6.151-0.248,7.471-0.941,9.755-6.646C407.751,485.861,406.004,472.961,402.733,460.047z
				 M242.046,496.254c-0.379,1.749-1.543,2.408-3.217,2.211c-2.755-0.326-5.522-0.612-8.246-1.124
				c-1.724-0.324-2.195-1.754-2.074-3.37c0.138-1.854,1.422-1.959,2.864-1.875c0.926,0.055,1.857,0.008,2.786,0.008
				c1.844,0.147,3.678-0.018,5.492,0.715C241.308,493.483,242.482,494.238,242.046,496.254z M260.096,478.391
				c-0.429,6.235-5.22,10.971-11.196,10.469c-5.862-0.492-11.706-0.16-17.556-0.307c-6.271-0.15-10.982-4.835-10.81-10.849
				c0.179-6.248,4.326-10.176,10.796-10.215c2.398-0.015,4.795-0.001,8.364-0.001c2.957-0.046,7.089-0.129,11.186,0.497
				C256.056,468.777,260.416,473.736,260.096,478.391z M270.485,473.626c0.928-0.073,1.86-0.123,2.791-0.123
				c25.054-0.004,50.108-0.001,75.166,0.002c0.267,0,0.534-0.031,0.799,0.007c1.225,0.184,3.307-0.521,3.285,1.212
				c-0.021,1.685-2.107,1.142-3.327,1.146c-12.794,0.044-25.588,0.023-38.381,0.023v-0.111c-12.396,0-24.791,0.004-37.185-0.007
				c-1.063,0-2.129-0.06-3.187-0.162c-0.545-0.059-1.038-0.399-1.017-1.005C269.449,474.016,269.907,473.672,270.485,473.626z
				 M349.172,497.615c-12.905,0.051-25.812,0.032-38.717,0.032l0.002-0.1c-12.64,0-25.279,0.021-37.918-0.033
				c-1.043-0.004-2.895,0.688-2.909-1.012c-0.012-1.479,1.774-1.229,2.929-1.23c25.545-0.017,51.091-0.017,76.637,0.001
				c1.147,0,2.93-0.241,2.912,1.24C352.088,498.108,350.242,497.611,349.172,497.615z M349.599,492.573
				c-25.564,0.027-51.138,0.021-76.707,0.021c-0.532,0-1.066-0.002-1.597-0.041c-0.826-0.061-1.754-0.271-1.778-1.209
				c-0.027-1.109,1.033-1.001,1.787-1.009c3.063-0.031,6.125-0.019,9.188-0.02c10.256,0.002,20.51,0.002,30.764,0.003
				c12.784,0.002,25.568-0.02,38.354,0.027c1.071,0.005,2.955-0.604,3.048,0.848C352.779,493.09,350.79,492.572,349.599,492.573z
				 M352.652,485.66c-0.234,1.469-1.999,0.938-3.098,0.938c-22.872,0.043-45.744,0.038-68.616,0.042
				c-3.054,0.001-6.108,0.027-9.162-0.016c-0.867-0.012-2.152,0.326-2.345-0.881c-0.243-1.525,1.247-1.375,2.189-1.682
				c1.394-1.336,3.151-1.236,4.883-1.237c22.876-0.005,45.752-0.005,68.628,0c1.732,0.003,3.489-0.095,4.884,1.241
				C351.063,484.381,352.922,483.957,352.652,485.66z M348.96,481.65c-16.343,0.061-32.687,0.052-49.029,0.027
				c-10.23-0.012-20.46-0.078-30.689-0.118c-0.41-3.427,2.208-2.325,3.759-2.329c23.593-0.063,47.188-0.059,70.781-0.049
				c3.063,0.004,6.124,0.113,9.187,0.175C353.033,482.542,350.584,481.642,348.96,481.65z M391.784,497.12
				c-2.838,0.46-5.604,1.378-8.563,1.303c-2.338-0.059-2.928-1.604-3.309-3.247c-0.486-2.099,1.551-1.685,2.604-2.136
				c1.858-0.794,3.852-0.874,5.854-0.733c0.781-0.122,1.562-0.24,2.342-0.363c1.324-0.209,2.438,0.05,2.667,1.57
				C393.61,495.026,393.45,496.85,391.784,497.12z M392.259,488.497c-3.591,0.185-7.198,0.036-10.799,0.036v0.131
				c-3.058,0-6.123,0.146-9.171-0.03c-6.347-0.369-10.049-4.239-10.207-10.435c-0.129-5.063,4.097-9.906,9.723-10.271
				c7.04-0.452,14.123-0.483,21.185-0.359c4.755,0.084,8.835,5.375,8.767,10.729C401.692,483.202,397.12,488.248,392.259,488.497z"
				/>
		</g>
	</g>
</g>
</svg>
