<?xml version="1.0" encoding="utf-8"?>
<!-- Generator: Adobe Illustrator 16.0.0, SVG Export Plug-In . SVG Version: 6.00 Build 0)  -->
<!DOCTYPE svg PUBLIC "-//W3C//DTD SVG 1.1//EN" "http://www.w3.org/Graphics/SVG/1.1/DTD/svg11.dtd">
<svg version="1.1" id="Layer_1" xmlns="http://www.w3.org/2000/svg" xmlns:xlink="http://www.w3.org/1999/xlink" x="0px" y="0px"
	 width="145px" height="145px" viewBox="234.5 307.5 145 145" enable-background="new 234.5 307.5 145 145" xml:space="preserve">
<g>
	<g>
		<path fill="#F0C410" d="M263.128,386.09c3.749-9.634,7.346-19.259,11.263-28.752c1.592-3.858,4.818-5.59,9.186-5.563
			c17.651,0.108,35.304,0.127,52.955-0.012c4.807-0.037,8.135,1.979,9.85,6.188c3.517,8.619,6.709,17.368,10.026,26.067
			c0.415,1.089,1.063,2.459-0.856,2.588c-2.033,0.136-4.385,0.895-5.455-2.025c-1.945-5.308-4.036-10.564-6.063-15.843
			c-0.656-1.708-1.32-3.412-1.967-5.124c-1.661-4.399-4.785-6.585-9.538-6.573c-14.82,0.037-29.644,0.071-44.462-0.024
			c-5.043-0.032-8.12,2.365-9.854,6.883c-2.325,6.056-4.918,12.026-6.891,18.194C269.966,386.32,267.777,387.732,263.128,386.09z"/>
		<path fill="#F0C310" d="M310.563,426.77c16.474-0.002,32.943-0.006,49.416,0.006c1.496,0.001,2.996,0.017,4.484,0.146
			c1.483,0.132,2.596,0.94,2.557,2.514c-0.035,1.51-1.064,2.375-2.565,2.572c-0.656,0.086-1.344,0.187-1.987,0.085
			c-5.31-0.821-8.23,0.643-7.229,6.771c0.465,2.836-1.221,4.278-4.212,4.057c-1.655-0.124-3.327-0.034-4.99-0.019
			c-4.466,0.044-7.028-2.015-6.72-6.622c0.217-3.25-0.869-4.264-4.182-4.233c-17.636,0.152-35.274,0.124-52.91,0.021
			c-2.995-0.02-4.671,0.433-4.36,4.013c0.345,3.979-0.327,7.127-5.811,6.924c-8.006-0.297-10.125-1.2-10.128-6.861
			c-0.002-3.439-1.225-4.377-4.358-4.065c-2.042,0.202-4.478,0.012-4.457-2.676c0.021-2.746,2.56-2.61,4.542-2.612
			C275.287,426.762,292.924,426.771,310.563,426.77z"/>
		<g>
			<g>
				<path fill="#F0C30F" d="M371.001,402c-3.979-6.833-7.233-7.752-13.383-8.881c-33.233-6.101-66.335-5.572-99.494,0.396
					C251.296,394.743,245,396,243,404c-0.556,1.943-1.25,4,0,8c2.25,7,9.021,9.452,16.891,9.369
					c31.454-0.334,62.916-0.301,94.37-0.013c7.024,0.063,13.572,0.015,16.739-7.356C371.556,410.25,372.25,405.943,371.001,402z
					 M257.884,413.793c-4.032-0.219-7.518-3.903-7.487-7.912c0.035-4.272,3.752-7.878,8.046-7.801
					c4.371,0.078,7.766,3.687,7.626,8.104C265.933,410.517,262.158,414.026,257.884,413.793z M358.079,413.803
					c-4.178,0.055-7.959-3.754-7.922-7.978c0.038-4.382,3.614-7.835,8.015-7.74c4.358,0.093,7.854,3.773,7.688,8.092
					C365.704,410.197,362.076,413.753,358.079,413.803z"/>
			</g>
		</g>
	</g>
</g>
</svg>
